<svg xmlns="http://www.w3.org/2000/svg" width="256" height="256" viewBox="0 0 100 100"><rect width="100" height="100" rx="50" fill="#303030"></rect><path fill="#fff" d="M50.95 71.50L45.80 71.50L40.46 57.88L23.30 57.88L18.02 71.50L12.98 71.50L29.92 28.50L34.11 28.50L50.95 71.50ZM25.05 53.40L38.91 53.40L33.93 40.13Q32.96 37.61 31.94 33.95L31.94 33.95Q31.29 36.76 30.09 40.13L30.09 40.13L25.05 53.40ZM70.76 53.69L61.82 53.69L61.82 71.50L56.84 71.50L56.84 28.67L68.59 28.67Q76.47 28.67 80.23 31.69Q84.00 34.71 84.00 40.77L84.00 40.77Q84.00 49.27 75.39 52.26L75.39 52.26L87.02 71.50L81.13 71.50L70.76 53.69ZM61.82 33.04L61.82 49.41L68.65 49.41Q73.92 49.41 76.38 47.32Q78.84 45.22 78.84 41.04L78.84 41.04Q78.84 36.79 76.34 34.91Q73.83 33.04 68.30 33.04L68.30 33.04L61.82 33.04Z"></path></svg>
